<svg width="86" height="86" viewBox="0 0 86 86" fill="none" xmlns="http://www.w3.org/2000/svg">
<path d="M43 86C66.7482 86 86 66.7482 86 43C86 19.2518 66.7482 0 43 0C19.2518 0 0 19.2518 0 43C0 66.7482 19.2518 86 43 86Z" fill="url(#paint0_linear_1012_691)"/>
<path d="M42.5316 28.2979C45.6228 28.292 48.6385 29.2527 51.1567 31.0456C52.3484 31.8908 53.774 32.3434 55.235 32.3404C62.0969 32.3404 64.8983 23.5155 59.2746 19.5326C55.9535 17.182 52.175 15.5566 48.1846 14.762C44.1942 13.9674 40.0812 14.0214 36.1131 14.9205C32.1449 15.8196 28.4104 17.5437 25.1522 19.9807C21.894 22.4177 19.1852 25.5131 17.2017 29.0656C15.2182 32.6182 14.0045 36.5483 13.6394 40.6007C13.2744 44.653 13.7662 48.7368 15.0828 52.5866C16.3995 56.4364 18.5116 59.9661 21.2818 62.9461C24.0519 65.9262 27.4182 68.29 31.1618 69.8838C32.2318 70.3303 33.3957 70.5051 34.5497 70.3926C35.7037 70.2801 36.8119 69.8837 37.7754 69.2389C38.739 68.594 39.5281 67.7207 40.0721 66.6969C40.6162 65.673 40.8985 64.5304 40.8937 63.371C40.8866 61.9936 40.4774 60.6484 39.7163 59.5004C38.9552 58.3524 37.8754 57.4517 36.6095 56.9089C33.525 55.5724 30.9813 53.2347 29.3897 50.2738H44.1934C45.1188 50.2746 46.0353 50.0931 46.8905 49.7396C47.7458 49.3862 48.5231 48.8678 49.178 48.214C49.8329 47.5602 50.3526 46.7838 50.7075 45.9292C51.0624 45.0745 51.2454 44.1583 51.2462 43.2329C51.2462 42.3076 51.0639 41.3914 50.7097 40.5366C50.3555 39.6819 49.8364 38.9052 49.182 38.2511C48.5276 37.597 47.7508 37.0782 46.8958 36.7244C46.0409 36.3706 45.1246 36.1887 44.1993 36.1891H29.3956C30.6646 33.8069 32.5571 31.8143 34.8709 30.4244C37.1846 29.0345 39.8325 28.2995 42.5316 28.2979Z" fill="white"/>
<defs>
<linearGradient id="paint0_linear_1012_691" x1="12.596" y1="12.596" x2="73.407" y2="73.407" gradientUnits="userSpaceOnUse">
<stop stop-color="#FB6824"/>
<stop offset="1" stop-color="#FCCF27"/>
</linearGradient>
</defs>
</svg>
