<svg xmlns="http://www.w3.org/2000/svg" width="160" height="80" viewBox="0 0 160 80">
  <g fill="none">
    <polygon fill="#729725" points="112.658 21.213 62.918 79.876 128.767 79.876" opacity=".8"/>
    <path fill="#EF552F" d="M77.391,67.13 C90.737,67.13 101.557,56.245 101.557,42.818 C101.557,29.391 90.737,18.507 77.391,18.507 C64.045,18.507 53.225,29.39 53.225,42.818 C53.225,56.246 64.045,67.13 77.391,67.13" opacity=".8"/>
    <polygon fill="#F4B333" points="123.917 31.859 147.959 31.859 159.98 52.806 147.959 73.753 123.917 73.753 111.896 52.806" opacity=".8"/>
    <polygon fill="#DE4160" points="48.505 .057 17.56 79.877 79.45 79.877" opacity=".8"/>
    <path fill="#5587A2" d="M28.701,71.83 C37.901,67.114 41.267,55.211 36.221,45.247 C31.174,35.282 1.311,17.747 1.311,17.747 C1.311,17.747 -2.144,52.36 2.903,62.325 C7.95,72.29 19.5,76.545 28.7,71.83" opacity=".8"/>
    <path fill="#FFFFFE" d="M21.555,42 L17,42 L17,65 L28,65 L28,61.096 L21.555,61.096 L21.555,42 Z M52.804,60.275 L54.476,65 L59,65 L50.758,42 L47.473,42 L39,65 L43.467,65 L45.254,60.275 L52.804,60.275 Z M51.622,56.709 L46.464,56.709 L48.856,48.567 L48.913,48.567 L51.623,56.709 L51.622,56.709 Z M102.375,51.7 L102.316,51.7 L102.316,42 L98,42 L98,65 L102.316,65 L102.316,54.66 L102.375,54.66 L109.45,65 L115,65 L106.133,52.615 L114.53,42 L109.216,42 L102.375,51.7 Z M146,52.474 C146,46.549 141.834,42 135.5,42 C129.166,42 125,46.55 125,52.474 C125,58.345 129.026,63 135.5,63 C141.974,63 146,58.345 146,52.474 Z M141.721,52.315 C141.721,55.383 140.088,59.165 135.501,59.165 C130.911,59.165 129.279,55.383 129.279,52.315 C129.279,49.088 131.587,45.835 135.5,45.835 C139.413,45.835 141.721,49.088 141.721,52.315 Z M72,34.773 L77.485,39 L83,34.773 L81.151,33 L77.485,35.836 L73.849,33 L72,34.773 Z M84.27,44.433 C82.93,42.956 80.218,42 78.264,42 C74.559,42 71.847,44.926 71.847,48.547 C71.847,51.936 73.917,53.355 76.747,54.514 C78.467,55.18 80.567,55.818 80.567,58.077 C80.567,59.757 79.489,61.234 77.738,61.234 C75.901,61.234 74.355,59.728 73.772,58.048 L71,60.742 C72.517,63.262 74.733,65 77.767,65 C82.258,65 85,61.9 85,57.527 C85,50.197 76.28,51.733 76.28,48.054 C76.28,46.634 77.592,45.592 78.962,45.592 C80.392,45.592 81.442,46.287 82.258,47.388 L84.271,44.433 L84.27,44.433 Z"/>
  </g>
</svg>