<svg width="1000" height="1000" viewBox="0 0 1000 1000" fill="none" xmlns="http://www.w3.org/2000/svg">
<rect width="1000" height="1000" fill="#171717"/>
<path d="M583.353 719.879C644.013 724.966 704.7 714.111 759.508 688.723C740.24 720.651 715.561 749.108 686.483 772.772C647.069 804.848 600.674 827.222 551.033 838.093C501.393 848.965 449.893 848.029 400.68 835.362C351.467 822.696 305.915 798.651 267.692 765.165C229.468 731.679 199.64 689.686 180.61 642.567C161.579 595.448 153.877 544.519 158.124 493.88C162.37 443.241 178.447 394.306 205.059 351.014C224.692 319.076 249.655 290.868 278.771 267.567C260.813 325.239 258.036 386.826 271.058 446.289C287.043 519.279 325.992 585.227 382.194 634.464C438.397 683.701 508.895 713.636 583.353 719.879Z" stroke="white" stroke-width="25"/>
<path d="M506.415 492.799C456.451 448.913 451.503 372.562 495.392 322.595C539.277 272.631 615.632 267.686 665.596 311.571C715.563 355.46 720.505 431.812 676.619 481.776C632.73 531.743 556.383 536.688 506.415 492.799ZM644.833 335.21C607.902 302.771 551.468 306.426 519.03 343.357C486.592 380.288 490.247 436.722 527.178 469.161C564.109 501.599 620.543 497.944 652.981 461.013C685.419 424.082 681.764 367.648 644.833 335.21Z" fill="white"/>
<path d="M680.974 294.063C674.446 288.329 673.802 278.391 679.536 271.863L719.525 226.335C725.259 219.807 735.198 219.163 741.726 224.897C748.254 230.631 748.898 240.57 743.164 247.098L703.175 292.625C697.444 299.149 687.502 299.797 680.974 294.063Z" fill="white"/>
<path d="M430.285 579.473C423.757 573.739 423.113 563.8 428.847 557.272L468.836 511.745C474.57 505.217 484.509 504.573 491.037 510.307C497.565 516.041 498.209 525.979 492.475 532.507L452.486 578.035C446.752 584.563 436.813 585.207 430.285 579.473Z" fill="white"/>
<path d="M455.683 308.654L410.156 268.665C403.627 262.931 402.984 252.993 408.718 246.465C414.452 239.937 424.39 239.293 430.918 245.027L476.446 285.016C482.974 290.75 483.618 300.688 477.884 307.216C472.15 313.745 462.207 314.385 455.683 308.654Z" fill="white"/>
<path d="M741.093 559.343L695.565 519.354C689.037 513.62 688.394 503.682 694.127 497.154C699.861 490.626 709.8 489.982 716.328 495.716L761.856 535.705C768.384 541.439 769.027 551.377 763.293 557.905C757.559 564.433 747.621 565.077 741.093 559.343Z" fill="white"/>
<path d="M734.928 403.687C731.902 401.029 729.894 397.221 729.61 392.888C729.048 384.215 735.62 376.734 744.293 376.172L804.759 372.256C813.432 371.694 820.907 378.266 821.472 386.935C822.033 395.608 815.462 403.089 806.789 403.651L746.322 407.567C741.993 407.848 737.953 406.344 734.928 403.687Z" fill="white"/>
<path d="M355.854 428.238C352.828 425.58 350.816 421.768 350.539 417.435C349.974 408.766 356.549 401.281 365.218 400.723L425.685 396.807C434.354 396.242 441.84 402.816 442.398 411.486C442.963 420.155 436.388 427.641 427.718 428.198L367.252 432.114C362.915 432.395 358.875 430.892 355.854 428.238Z" fill="white"/>
<path d="M565.307 254.701C562.281 252.043 560.269 248.231 559.989 243.902L556.073 183.435C555.511 174.762 562.082 167.28 570.755 166.719C579.428 166.157 586.91 172.736 587.472 181.401L591.388 241.868C591.95 250.541 585.378 258.023 576.705 258.585C572.368 258.858 568.328 257.355 565.307 254.701Z" fill="white"/>
<path d="M589.858 633.775C586.832 631.117 584.824 627.309 584.543 622.972L580.627 562.505C580.062 553.836 586.637 546.351 595.306 545.793C603.979 545.231 611.457 551.799 612.019 560.472L615.935 620.939C616.5 629.608 609.925 637.094 601.256 637.651C596.919 637.932 592.883 636.432 589.858 633.775Z" fill="white"/>
</svg>
