<svg width="49" height="38" viewBox="0 0 49 38" fill="none" xmlns="http://www.w3.org/2000/svg">
<path d="M41.2846 3.7187C38.2092 2.30755 34.9112 1.26788 31.463 0.67242C31.4002 0.660928 31.3375 0.689647 31.3051 0.747088C30.881 1.50146 30.4112 2.48561 30.0822 3.25914C26.3734 2.7039 22.6836 2.7039 19.0509 3.25914C18.7218 2.46842 18.235 1.50146 17.8089 0.747088C17.7766 0.691564 17.7138 0.662844 17.651 0.67242C14.2047 1.26598 10.9068 2.30565 7.82944 3.7187C7.8028 3.73018 7.77996 3.74935 7.76481 3.77422C1.50929 13.1198 -0.204362 22.2357 0.636297 31.2386C0.640101 31.2827 0.664826 31.3248 0.699061 31.3516C4.82627 34.3825 8.82418 36.2226 12.7479 37.4422C12.8107 37.4613 12.8772 37.4384 12.9171 37.3867C13.8453 36.1192 14.6727 34.7827 15.382 33.3773C15.4239 33.295 15.3839 33.1973 15.2984 33.1648C13.986 32.667 12.7364 32.06 11.5344 31.3707C11.4393 31.3152 11.4317 31.1792 11.5192 31.1141C11.7721 30.9246 12.0252 30.7273 12.2667 30.5282C12.3104 30.4919 12.3713 30.4842 12.4227 30.5072C20.3195 34.1126 28.8687 34.1126 36.6724 30.5072C36.7237 30.4823 36.7846 30.49 36.8302 30.5263C37.0718 30.7254 37.3248 30.9246 37.5796 31.1141C37.6671 31.1792 37.6614 31.3152 37.5663 31.3707C36.3643 32.0734 35.1147 32.667 33.8005 33.1629C33.7149 33.1954 33.6768 33.295 33.7187 33.3773C34.4433 34.7808 35.2707 36.1172 36.1817 37.3848C36.2197 37.4384 36.2882 37.4613 36.351 37.4422C40.2937 36.2226 44.2915 34.3825 48.4188 31.3516C48.4549 31.3248 48.4778 31.2846 48.4816 31.2405C49.4877 20.8322 46.7964 11.7911 41.3473 3.77612C41.334 3.74935 41.3113 3.73018 41.2846 3.7187ZM16.5613 25.7568C14.1838 25.7568 12.2248 23.5741 12.2248 20.8935C12.2248 18.2129 14.1458 16.0302 16.5613 16.0302C18.9957 16.0302 20.9357 18.2321 20.8977 20.8935C20.8977 23.5741 18.9767 25.7568 16.5613 25.7568ZM32.5946 25.7568C30.2172 25.7568 28.2582 23.5741 28.2582 20.8935C28.2582 18.2129 30.1791 16.0302 32.5946 16.0302C35.0291 16.0302 36.9691 18.2321 36.9311 20.8935C36.9311 23.5741 35.0291 25.7568 32.5946 25.7568Z" fill="white"/>
</svg>
