<svg width="50" height="49" viewBox="0 0 50 49" fill="none" xmlns="http://www.w3.org/2000/svg">
<path fill-rule="evenodd" clip-rule="evenodd" d="M24.9806 0.213623C11.4631 0.213623 0.514557 11.3142 0.514557 25.0194C0.514557 35.996 7.51795 45.2672 17.2432 48.554C18.4665 48.771 18.9252 48.0269 18.9252 47.3757C18.9252 46.7866 18.8947 44.8331 18.8947 42.7556C12.7476 43.9029 11.1573 41.2363 10.668 39.8409C10.3927 39.1278 9.19999 36.9262 8.16019 36.3371C7.30388 35.872 6.08058 34.7247 8.12961 34.6937C10.0563 34.6627 11.4325 36.4921 11.8913 37.2363C14.0932 40.9882 17.6102 39.934 19.017 39.2828C19.2311 37.6704 19.8733 36.5852 20.5767 35.965C15.133 35.3449 9.44465 33.2054 9.44465 23.7171C9.44465 21.0195 10.3927 18.787 11.9524 17.0506C11.7078 16.4304 10.8514 13.8878 12.1971 10.477C12.1971 10.477 14.2461 9.82588 18.9252 13.0196C20.8825 12.4615 22.9621 12.1824 25.0417 12.1824C27.1214 12.1824 29.201 12.4615 31.1582 13.0196C35.8374 9.79487 37.8864 10.477 37.8864 10.477C39.232 13.8878 38.3757 16.4304 38.1311 17.0506C39.6908 18.787 40.6388 20.9885 40.6388 23.7171C40.6388 33.2364 34.9199 35.3449 29.4762 35.965C30.3631 36.7402 31.1277 38.2286 31.1277 40.5541C31.1277 43.8719 31.0971 46.5385 31.0971 47.3757C31.0971 48.0269 31.5558 48.802 32.7791 48.554C42.4432 45.2672 49.4466 35.965 49.4466 25.0194C49.4466 11.3142 38.4981 0.213623 24.9806 0.213623Z" fill="white"/>
</svg>
