<svg width="49" height="49" viewBox="0 0 49 49" fill="none" xmlns="http://www.w3.org/2000/svg">
<path d="M8.44376 1.28324C6.83258 1.90993 5.47004 2.74553 4.10751 4.10834C2.74497 5.46121 1.90954 6.83397 1.28297 8.43553C0.676297 9.98735 0.268529 11.768 0.149183 14.3742C0.0298366 16.9805 0 17.8161 0 24.461C0 31.106 0.0298366 31.9416 0.149183 34.5479C0.268529 37.1541 0.686242 38.9347 1.28297 40.4866C1.90954 42.0981 2.74497 43.4609 4.10751 44.8237C5.47004 46.1865 6.83258 47.0221 8.44376 47.6488C9.99526 48.2556 11.7755 48.6635 14.3812 48.7828C16.987 48.9022 17.8224 48.932 24.466 48.932C31.1096 48.932 31.9451 48.9022 34.5508 48.7828C37.1565 48.6635 38.9368 48.2457 40.4883 47.6488C42.0995 47.0221 43.462 46.1865 44.8245 44.8237C46.1871 43.4609 47.0225 42.0981 47.6491 40.4866C48.2557 38.9347 48.6635 37.1541 48.7829 34.5479C48.9022 31.9416 48.932 31.106 48.932 24.461C48.932 17.8161 48.9022 16.9805 48.7829 14.3742C48.6635 11.768 48.2458 9.98735 47.6491 8.43553C47.0225 6.83397 46.1871 5.46121 44.8345 4.10834C43.4719 2.74553 42.1094 1.90993 40.4982 1.28324C38.9467 0.676434 37.1665 0.268584 34.5607 0.149213C31.955 0.0298427 31.1196 0 24.476 0C17.8323 0 16.9969 0.0298427 14.3912 0.149213C11.7755 0.258637 9.99526 0.676434 8.44376 1.28324ZM34.3519 4.54603C36.7388 4.65546 38.0317 5.05336 38.897 5.39158C40.0407 5.83922 40.8563 6.36644 41.7116 7.22193C42.5669 8.07742 43.094 8.89312 43.5416 10.0371C43.8797 10.9025 44.2775 12.1957 44.3869 14.5831C44.5063 17.1595 44.5262 17.9354 44.5262 24.471C44.5262 31.0065 44.4963 31.7824 44.3869 34.3589C44.2775 36.7463 43.8797 38.0395 43.5416 38.9049C43.094 40.0489 42.5669 40.8646 41.7116 41.7201C40.8563 42.5755 40.0407 43.1028 38.897 43.5504C38.0317 43.8886 36.7388 44.2865 34.3519 44.396C31.776 44.5153 31.0002 44.5352 24.466 44.5352C17.9318 44.5352 17.1561 44.5054 14.5802 44.396C12.1932 44.2865 10.9003 43.8886 10.035 43.5504C8.89131 43.1028 8.07578 42.5755 7.22046 41.7201C6.36514 40.8646 5.83803 40.0489 5.39048 38.9049C5.05233 38.0395 4.65451 36.7463 4.54511 34.3589C4.42576 31.7824 4.40587 31.0065 4.40587 24.471C4.40587 17.9354 4.43571 17.1595 4.54511 14.5831C4.65451 12.1957 5.05233 10.9025 5.39048 10.0371C5.83803 8.89312 6.36514 8.07742 7.22046 7.22193C8.07578 6.36644 8.89131 5.83922 10.035 5.39158C10.9003 5.05336 12.1932 4.65546 14.5802 4.54603C17.1561 4.42666 17.9318 4.40677 24.466 4.40677C31.0002 4.40677 31.776 4.42666 34.3519 4.54603Z" fill="white"/>
<path d="M11.9048 24.4711C11.9048 31.4145 17.534 37.0349 24.466 37.0349C31.398 37.0349 37.0272 31.4046 37.0272 24.4711C37.0272 17.5377 31.408 11.9073 24.466 11.9073C17.524 11.9073 11.9048 17.5277 11.9048 24.4711ZM32.6213 24.4711C32.6213 28.9774 28.9713 32.6281 24.466 32.6281C19.9607 32.6281 16.3107 28.9774 16.3107 24.4711C16.3107 19.9649 19.9607 16.3141 24.466 16.3141C28.9713 16.3141 32.6213 19.9649 32.6213 24.4711Z" fill="white"/>
<path d="M37.5345 14.3444C39.1548 14.3444 40.4684 13.0306 40.4684 11.4099C40.4684 9.78918 39.1548 8.47534 37.5345 8.47534C35.9141 8.47534 34.6005 9.78918 34.6005 11.4099C34.6005 13.0306 35.9141 14.3444 37.5345 14.3444Z" fill="white"/>
</svg>
