<svg width="50" height="50" viewBox="0 0 50 50" fill="none" xmlns="http://www.w3.org/2000/svg">
<path d="M42.1682 42.2496H34.9183V30.8914C34.9183 28.1833 34.8695 24.696 31.147 24.696C27.3709 24.696 26.7927 27.6463 26.7927 30.6924V42.2487H19.5428V18.8977H26.5027V22.0892H26.5965C27.2932 20.8982 28.2998 19.9184 29.5093 19.2542C30.7187 18.59 32.0856 18.2663 33.4644 18.3176C40.8128 18.3176 42.1682 23.1518 42.1682 29.4402V42.2496ZM11.3618 15.7052C10.5296 15.7054 9.71592 15.4587 9.02383 14.9964C8.33173 14.5341 7.79226 13.877 7.47363 13.1081C7.15501 12.3391 7.07155 11.493 7.2338 10.6766C7.39605 9.86025 7.79674 9.11034 8.38517 8.52172C8.97361 7.9331 9.72337 7.53222 10.5396 7.36977C11.3559 7.20732 12.202 7.2906 12.9709 7.60908C13.7399 7.92756 14.3971 8.46693 14.8595 9.15898C15.3219 9.85103 15.5687 10.6647 15.5687 11.497C15.5687 12.6129 15.1255 13.6831 14.3366 14.4723C13.5477 15.2615 12.4776 15.7049 11.3618 15.7052ZM14.9868 42.2487H7.72937V18.8977H14.9877L14.9868 42.2487ZM45.7791 0.556525H4.08566C3.61663 0.550824 3.15108 0.637699 2.71568 0.812177C2.28027 0.986655 1.88355 1.24531 1.54823 1.57333C1.21291 1.90135 0.945584 2.2923 0.761549 2.72378C0.577514 3.15527 0.480387 3.61882 0.475731 4.0879V45.9537C0.486871 46.9007 0.873422 47.8045 1.55047 48.4666C2.22751 49.1288 3.13968 49.4951 4.0866 49.4851H45.7791C46.7285 49.4978 47.6441 49.133 48.3246 48.4708C49.005 47.8086 49.3947 46.9032 49.4078 45.9537V4.08039C49.3942 3.13149 49.0042 2.22686 48.3237 1.56549C47.6432 0.904113 46.7279 0.540169 45.7791 0.553709" fill="white"/>
</svg>
