<svg width="50" height="41" viewBox="0 0 50 41" fill="none" xmlns="http://www.w3.org/2000/svg">
<path d="M49.2913 5.01794C47.491 5.81651 45.556 6.35599 43.5256 6.59869C45.5981 5.3563 47.1901 3.38899 47.9395 1.04466C45.9996 2.19529 43.8512 3.03056 41.5644 3.48074C39.7333 1.52957 37.1243 0.310669 34.2368 0.310669C28.6928 0.310669 24.1976 4.80533 24.1976 10.3493C24.1976 11.1362 24.2865 11.9024 24.4577 12.6372C16.1143 12.2185 8.71724 8.22177 3.7658 2.14807C2.90165 3.63071 2.40646 5.35508 2.40646 7.19493C2.40646 10.6779 4.17878 13.7506 6.87249 15.5508C5.22691 15.4987 3.67894 15.0471 2.32548 14.2952C2.32433 14.3371 2.32434 14.3791 2.32434 14.4215C2.32434 19.2853 5.78482 23.3425 10.3773 24.2654C9.53497 24.4949 8.64808 24.6175 7.73256 24.6175C7.08567 24.6175 6.45691 24.5543 5.84378 24.4374C7.1214 28.4256 10.8287 31.328 15.2219 31.4087C11.7861 34.1015 7.45756 35.7064 2.75396 35.7064C1.94364 35.7064 1.14458 35.6587 0.359222 35.566C4.80201 38.4146 10.0789 40.0766 15.7481 40.0766C34.2134 40.0766 44.3113 24.7797 44.3113 11.5132C44.3113 11.0779 44.3015 10.6451 44.2822 10.2143C46.2434 8.79916 47.9452 7.03125 49.2911 5.01794H49.2913Z" fill="white"/>
</svg>
